# xmcd
#
# Track frame offsets: 
#        150
#        20915
#        34312
#        52744
#        67187
#        89608
#        104925
#        121916
#        137950
#        155620
#        172696
#
# Disc length: 2507 seconds
#
# Revision: 0
# Processed by: cddbd v1.5.2PL0 Copyright (c) Steve Scherf et al.
# Submitted via: ExactAudioCopyFreeDBPlugin 1.0
#
DISCID=9f09c90b
DTITLE=Hayley Reardon - Where The Artists Go
DYEAR=2012
DGENRE=Pop
TTITLE0=Where The Artists Go
TTITLE1=Only Pretending
TTITLE2=Change
TTITLE3=Tribe
TTITLE4=Music
TTITLE5=Scribbles
TTITLE6=Like He Knows The Red Sox
TTITLE7=Addicted To Conviction
TTITLE8=There You Are With Me
TTITLE9=Seattle
TTITLE10=Goodbye Song
EXTD=
EXTT0=
EXTT1=
EXTT2=
EXTT3=
EXTT4=
EXTT5=
EXTT6=
EXTT7=
EXTT8=
EXTT9=
EXTT10=
PLAYORDER=
